<svg width="369" height="124" viewBox="0 0 369 124" fill="none" xmlns="http://www.w3.org/2000/svg">
<path d="M32.5 14.5H329C350.263 14.5 367.5 31.737 367.5 53V112.5H71C49.737 112.5 32.5 95.263 32.5 74V14.5Z" stroke="#DF6767" stroke-width="3"/>
<path d="M48.5 1.5H319C340.263 1.5 357.5 18.737 357.5 40V122.5H87C65.737 122.5 48.5 105.263 48.5 84V1.5Z" stroke="#DF6767" stroke-width="3"/>
<path d="M137.443 63.7715C137.443 62.459 137.906 61.3398 138.832 60.4141C139.758 59.4883 140.877 59.0254 142.189 59.0254H142.242C143.555 59.0254 144.674 59.4883 145.6 60.4141C146.537 61.3398 147.006 62.459 147.006 63.7715V66.2148C147.006 67.5273 146.537 68.6465 145.6 69.5723C144.674 70.5098 143.555 70.9785 142.242 70.9785H142.189C140.877 70.9785 139.758 70.5098 138.832 69.5723C137.906 68.6465 137.443 67.5273 137.443 66.2148V63.7715ZM136.529 79.8203C136.775 79.8203 136.986 79.7324 137.162 79.5566C137.35 79.3809 137.443 79.1641 137.443 78.9062V70.75C138.732 72.1094 140.314 72.7891 142.189 72.7891H142.242C144.059 72.7891 145.611 72.1504 146.9 70.873C148.178 69.584 148.816 68.0312 148.816 66.2148V63.7715C148.816 61.9551 148.178 60.4082 146.9 59.1309C145.611 57.8418 144.059 57.1973 142.242 57.1973H142.189C140.373 57.1973 138.826 57.8418 137.549 59.1309C136.26 60.4082 135.615 61.9551 135.615 63.7715V78.9062C135.615 79.1641 135.703 79.3809 135.879 79.5566C136.055 79.7324 136.271 79.8203 136.529 79.8203ZM152.701 73C152.959 73 153.176 72.9121 153.352 72.7363C153.527 72.5488 153.615 72.332 153.615 72.0859V63.9121C153.615 62.5879 154.084 61.457 155.021 60.5195C155.959 59.582 157.09 59.1133 158.414 59.1133H159.521C159.768 59.1133 159.984 59.0254 160.172 58.8496C160.348 58.6738 160.436 58.457 160.436 58.1992C160.436 57.9414 160.348 57.7246 160.172 57.5488C159.984 57.373 159.768 57.2852 159.521 57.2852H158.414C156.586 57.2852 155.027 57.9297 153.738 59.2188C152.438 60.5195 151.787 62.084 151.787 63.9121V72.0859C151.787 72.332 151.875 72.5488 152.051 72.7363C152.238 72.9121 152.455 73 152.701 73ZM163.67 63.8945C163.67 62.5117 164.086 61.3691 164.918 60.4668C165.738 59.5645 166.781 59.1133 168.047 59.1133H168.1C169.365 59.1133 170.414 59.5645 171.246 60.4668C172.066 61.3691 172.477 62.5117 172.477 63.8945V64.2109H163.67V63.8945ZM168.521 73C169.588 73 170.584 72.7656 171.51 72.2969C172.436 71.8281 173.215 71.166 173.848 70.3105C174 70.1113 174.059 69.8828 174.023 69.625C173.988 69.3789 173.871 69.1797 173.672 69.0273C173.461 68.875 173.232 68.8164 172.986 68.8516C172.729 68.8867 172.523 69.0098 172.371 69.2207C171.41 70.5215 170.127 71.1719 168.521 71.1719H168.469C167.145 71.1719 166.014 70.7031 165.076 69.7656C164.139 68.8281 163.67 67.6973 163.67 66.373V66.0566H173.391C173.648 66.0566 173.865 65.9629 174.041 65.7754C174.217 65.5996 174.305 65.3887 174.305 65.1426V63.8945C174.305 62.0078 173.713 60.4316 172.529 59.166C171.346 57.9004 169.869 57.2676 168.1 57.2676H168.047C166.277 57.2676 164.801 57.9004 163.617 59.166C162.434 60.4316 161.842 62.0078 161.842 63.8945V66.373C161.842 68.2012 162.492 69.7598 163.793 71.0488C165.082 72.3496 166.641 73 168.469 73H168.521ZM182.373 73C183.814 73 185.121 72.5723 186.293 71.7168C186.492 71.5645 186.609 71.3652 186.645 71.1191C186.691 70.8613 186.639 70.6328 186.486 70.4336C186.334 70.2227 186.135 70.0996 185.889 70.0645C185.631 70.0293 185.402 70.0879 185.203 70.2402C184.359 70.8613 183.416 71.1719 182.373 71.1719H182.32C180.996 71.1719 179.865 70.7031 178.928 69.7656C177.99 68.8281 177.521 67.6973 177.521 66.373V63.9121C177.521 62.5879 177.99 61.457 178.928 60.5195C179.865 59.582 180.996 59.1133 182.32 59.1133H182.373C183.416 59.1133 184.359 59.4238 185.203 60.0449C185.402 60.1973 185.631 60.2559 185.889 60.2207C186.135 60.1738 186.334 60.0508 186.486 59.8516C186.639 59.6406 186.691 59.4121 186.645 59.166C186.609 58.9199 186.492 58.7207 186.293 58.5684C185.121 57.7129 183.814 57.2852 182.373 57.2852H182.32C180.492 57.2852 178.934 57.9297 177.645 59.2188C176.344 60.5195 175.693 62.084 175.693 63.9121V66.373C175.693 68.2012 176.344 69.7598 177.645 71.0488C178.934 72.3496 180.492 73 182.32 73H182.373ZM190.846 53.2773C191.232 53.2773 191.561 53.1426 191.83 52.873C192.1 52.6035 192.234 52.2754 192.234 51.8887C192.234 51.502 192.1 51.1738 191.83 50.9043C191.561 50.6348 191.232 50.5 190.846 50.5C190.459 50.5 190.131 50.6348 189.861 50.9043C189.592 51.1738 189.457 51.502 189.457 51.8887C189.457 52.2754 189.592 52.6035 189.861 52.873C190.131 53.1426 190.459 53.2773 190.846 53.2773ZM191.83 72.0156C191.83 72.2852 191.736 72.5195 191.549 72.7188C191.35 72.9062 191.115 73 190.846 73C190.576 73 190.342 72.9062 190.143 72.7188C189.955 72.5195 189.861 72.2852 189.861 72.0156V57.0918C189.861 56.8223 189.955 56.5879 190.143 56.3887C190.342 56.2012 190.576 56.1074 190.846 56.1074C191.115 56.1074 191.35 56.2012 191.549 56.3887C191.736 56.5879 191.83 56.8223 191.83 57.0918V72.0156ZM202.641 65.8281C203.379 65.8281 204.006 66.0859 204.521 66.6016C205.049 67.1289 205.312 67.7617 205.312 68.5C205.312 69.2383 205.049 69.8652 204.521 70.3809C204.006 70.9082 203.379 71.1719 202.641 71.1719H198.334C197.596 71.1719 196.963 70.9082 196.436 70.3809C196.26 70.2051 196.049 70.1172 195.803 70.1172C195.545 70.1172 195.328 70.2051 195.152 70.3809C194.977 70.5566 194.889 70.7734 194.889 71.0312C194.889 71.2891 194.977 71.5059 195.152 71.6816C196.031 72.5605 197.092 73 198.334 73H202.641C203.883 73 204.943 72.5605 205.822 71.6816C206.701 70.8027 207.141 69.7422 207.141 68.5C207.141 67.2578 206.701 66.1973 205.822 65.3184C204.943 64.4395 203.883 64 202.641 64H198.932C198.264 64 197.689 63.7598 197.209 63.2793C196.729 62.7988 196.488 62.2246 196.488 61.5566C196.488 60.8887 196.729 60.3145 197.209 59.834C197.689 59.3535 198.264 59.1133 198.932 59.1133H202.869C203.549 59.1133 204.123 59.3535 204.592 59.834C204.768 60.0098 204.984 60.0977 205.242 60.0977C205.5 60.0977 205.717 60.0098 205.893 59.834C206.068 59.6582 206.156 59.4414 206.156 59.1836C206.156 58.9375 206.068 58.7207 205.893 58.5332C205.061 57.7012 204.053 57.2852 202.869 57.2852H198.932C197.748 57.2852 196.74 57.7012 195.908 58.5332C195.076 59.377 194.66 60.3848 194.66 61.5566C194.66 62.7285 195.076 63.7363 195.908 64.5801C196.74 65.4121 197.748 65.8281 198.932 65.8281H202.641ZM210.674 63.9121C210.674 62.5879 211.143 61.457 212.08 60.5195C213.018 59.582 214.148 59.1133 215.473 59.1133H215.525C216.85 59.1133 217.98 59.582 218.918 60.5195C219.855 61.457 220.324 62.5879 220.324 63.9121V66.373C220.324 67.6973 219.855 68.8281 218.918 69.7656C217.98 70.7031 216.85 71.1719 215.525 71.1719H215.473C214.148 71.1719 213.018 70.7031 212.08 69.7656C211.143 68.8281 210.674 67.6973 210.674 66.373V63.9121ZM215.525 73C217.412 73 219.012 72.3145 220.324 70.9434V72.0859C220.324 72.332 220.412 72.5488 220.588 72.7363C220.764 72.9121 220.98 73 221.238 73C221.484 73 221.701 72.9121 221.889 72.7363C222.064 72.5488 222.152 72.332 222.152 72.0859V63.9121C222.152 62.084 221.508 60.5195 220.219 59.2188C218.918 57.9297 217.354 57.2852 215.525 57.2852H215.473C213.645 57.2852 212.086 57.9297 210.797 59.2188C209.496 60.5195 208.846 62.084 208.846 63.9121V66.373C208.846 68.2012 209.496 69.7598 210.797 71.0488C212.086 72.3496 213.645 73 215.473 73H215.525ZM226.195 73C226.441 73 226.652 72.9121 226.828 72.7363C227.016 72.5605 227.109 72.3438 227.109 72.0859V63.9824C227.109 62.6699 227.572 61.5508 228.498 60.625C229.424 59.6992 230.543 59.2363 231.855 59.2363H231.908C233.221 59.2363 234.34 59.6992 235.266 60.625C236.191 61.5508 236.654 62.6699 236.654 63.9824V72.0859C236.654 72.3438 236.748 72.5605 236.936 72.7363C237.111 72.9121 237.322 73 237.568 73C237.826 73 238.043 72.9121 238.219 72.7363C238.395 72.5605 238.482 72.3438 238.482 72.0859V63.9824C238.482 62.166 237.838 60.6191 236.549 59.3418C235.271 58.0527 233.725 57.4082 231.908 57.4082H231.855C230.039 57.4082 228.492 58.0527 227.215 59.3418C225.926 60.6191 225.281 62.166 225.281 63.9824V72.0859C225.281 72.3438 225.369 72.5605 225.545 72.7363C225.721 72.9121 225.938 73 226.195 73ZM252.316 66.4609C252.316 67.7617 251.854 68.875 250.928 69.8008C250.002 70.7266 248.889 71.1895 247.588 71.1895H247.535C246.234 71.1895 245.121 70.7266 244.195 69.8008C243.27 68.875 242.807 67.7617 242.807 66.4609V64.0352C242.807 62.7227 243.27 61.6035 244.195 60.6777C245.121 59.7637 246.234 59.3066 247.535 59.3066H247.588C248.889 59.3066 250.002 59.7637 250.928 60.6777C251.854 61.6035 252.316 62.7227 252.316 64.0352V66.4609ZM253.23 50.5C252.973 50.5 252.756 50.5879 252.58 50.7637C252.404 50.9395 252.316 51.1562 252.316 51.4141V59.5176C251.027 58.1699 249.451 57.4961 247.588 57.4961H247.535C245.73 57.4961 244.189 58.1348 242.912 59.4121C241.635 60.6895 240.996 62.2305 240.996 64.0352V66.4609C240.996 68.2656 241.635 69.8066 242.912 71.084C244.189 72.3613 245.73 73 247.535 73H247.588C249.393 73 250.934 72.3613 252.211 71.084C253.488 69.8066 254.127 68.2656 254.127 66.4609V51.4141C254.127 51.1562 254.039 50.9395 253.863 50.7637C253.688 50.5879 253.477 50.5 253.23 50.5ZM258.926 63.9121C258.926 62.5879 259.395 61.457 260.332 60.5195C261.27 59.582 262.4 59.1133 263.725 59.1133H263.777C265.102 59.1133 266.232 59.582 267.17 60.5195C268.107 61.457 268.576 62.5879 268.576 63.9121V66.373C268.576 67.6973 268.107 68.8281 267.17 69.7656C266.232 70.7031 265.102 71.1719 263.777 71.1719H263.725C262.4 71.1719 261.27 70.7031 260.332 69.7656C259.395 68.8281 258.926 67.6973 258.926 66.373V63.9121ZM263.777 73C265.605 73 267.164 72.3496 268.453 71.0488C269.754 69.7598 270.404 68.2012 270.404 66.373V63.9121C270.404 62.084 269.754 60.5254 268.453 59.2363C267.164 57.9355 265.605 57.2852 263.777 57.2852H263.725C261.896 57.2852 260.338 57.9355 259.049 59.2363C257.748 60.5254 257.098 62.084 257.098 63.9121V66.373C257.098 68.2012 257.748 69.7598 259.049 71.0488C260.338 72.3496 261.896 73 263.725 73H263.777Z" fill="#DF6767"/>
</svg>
